<svg xmlns="http://www.w3.org/2000/svg" viewBox="0 0 180 180">
  <rect fill="url(#a)" rx="10" x="0" y="0" width="180" height="180" />
  <path transform="translate(-210,-130) scale(1.5)" d="m224 100-17 7-11 5h-21c-20 0-24 0-24 3 0 2 7 6 15 8 6 2 9 5 9 8-1 2 0 2 3-1 3-2 8-3 8-1s-4 6-9 9c-7 4-10 7-12 15-2 6-2 9-2 16 1 12 4 19 12 27 9 9 12 8 9-2l-2-10c0-5 0-6 4-9l4-3 4-1c2-1 2-1 1-3-3-2-12-2-17 1-4 2-5 2-4-2 1-5 3-6 14-8 12-1 17-3 22-7l4-2v3c-2 10-2 17-1 19 2 2 2 2 4 0 6-5 13-22 13-30 0-2 1-5 6-10 7-7 12-17 13-24v-6l-4-1c-6-3-15-3-21-1zm13 17c0 3-7 11-9 10-1-2 1-6 4-9 4-3 5-4 5-1z"/>

   <defs>
    <linearGradient id="a" x1="0%" y1="0%" x2="100%" y2="100%" gradientUnits="userSpaceOnUse">
      <stop offset="0.0" stop-color="#aaa"/>
      <stop offset="0.5" stop-color="#eee"/>
      <stop offset="1.0" stop-color="#fff"/>
    </linearGradient>
  </defs>
</svg>